# AST/ASF file generated using VICON BodyLanguage
# -----------------------------------------------
:version 1.10
:name VICON
:units
  mass 1.0
  length 0.45
  angle deg
:documentation
   .ast/.asf automatically generated from VICON data using
   VICON BodyBuilder and BodyLanguage model FoxedUp or BRILLIANT.MOD
:root
   order TX TY TZ RX RY RZ
   axis XYZ
   position 0 0 0  
   orientation 0 0 0 
:bonedata
  begin
     id 1 
     name lhipjoint
     direction 0.521452 -0.77106 0.36545 
     length 2.0933 
     axis 0 0 0  XYZ
  end
  begin
     id 2 
     name lfemur
     direction 0.34202 -0.939693 0  
     length 6.83441  
     axis 0 0 20  XYZ
    dof rx ry rz
    limits (-160.0 20.0)
           (-70.0 70.0)
           (-60.0 70.0)
  end
  begin
     id 3 
     name ltibia
     direction 0.34202 -0.939693 0   
     length 7.28749   
     axis 0 0 20   XYZ
    dof rx
    limits (-10.0 170.0)
  end
  begin
     id 4 
     name lfoot
     direction 0.100608 -0.276418 0.955757   
     length 1.52195   
     axis -90 7.62852e-016 20   XYZ
    dof rx rz
    limits (-45.0 90.0)
           (-70.0 20.0)
  end
  begin
     id 5 
     name ltoes
     direction 1.53558e-011 -4.21907e-011 1   
     length 0.770459   
     axis -90 7.62852e-016 20   XYZ
    dof rx
    limits (-90.0 20.0)
  end
  begin
     id 6 
     name rhipjoint
     direction -0.488071 -0.788702 0.373812   
     length 2.04648  
     axis 0 0 0  XYZ 
  end
  begin
     id 7 
     name rfemur
     direction -0.34202 -0.939693 0   
     length 6.92583   
     axis 0 0 -20   XYZ
    dof rx ry rz
    limits (-160.0 20.0)
           (-70.0 70.0)
           (-70.0 60.0)
  end
  begin
     id 8 
     name rtibia
     direction -0.34202 -0.939693 0   
     length 7.41043   
     axis 0 0 -20   XYZ
    dof rx
    limits (-10.0 170.0)
 end
 begin
     id 9 
     name rfoot
     direction -0.0784433 -0.215521 0.973343   
     length 1.67708  
     axis -90 -7.62852e-016 -20   XYZ
    dof rx rz
    limits (-45.0 90.0)
           (-20.0 70.0)
  end
  begin
     id 10 
     name rtoes
     direction -1.53551e-011 -4.21842e-011 1   
     length 0.849787   
     axis -90 -7.62852e-016 -20   XYZ
    dof rx
    limits (-90.0 20.0)
  end
  begin
     id 11 
     name lowerback
     direction -0.0122332 0.997575 -0.0685192   
     length 1.98724   
     axis 0 0 0   XYZ
    dof rx ry rz
    limits (-20.0 45.0)
           (-30.0 30.0)
           (-30.0 30.0)
  end
  begin
     id 12 
     name upperback
     direction 0.0182347 0.999724 -0.0148421   
     length 1.99029   
     axis 0 0 0   XYZ
    dof rx ry rz
    limits (-20.0 45.0)
           (-30.0 30.0)
           (-30.0 30.0)
  end
  begin
     id 13 
     name thorax
     direction 0.0242908 0.99956 0.0170184   
     length 1.99573   
     axis 0 0 0   XYZ
    dof rx ry rz
    limits (-20.0 45.0)
           (-30.0 30.0)
           (-30.0 30.0)
  end
  begin
     id 14 
     name lowerneck
     direction 0.0654488 0.985533 0.156338   
     length 1.4285   
     axis 0 0 0   XYZ
    dof rx ry rz
    limits (-20.0 45.0)
           (-30.0 30.0)
           (-30.0 30.0)
  end
  begin
     id 15 
     name upperneck
     direction -0.02953 0.998556 -0.0448842   
     length 1.44709   
     axis 0 0 0   XYZ
    dof rx ry rz
    limits (-20.0 45.0)
           (-30.0 30.0)
           (-30.0 30.0)
  end
  begin
     id 16
     name head
     direction -0.0155588 0.999386 -0.0314063  
     length 1.44689  
     axis 0 0 0   XYZ
    dof rx ry rz
    limits (-20.0 45.0)
           (-30.0 30.0)
           (-30.0 30.0)
  end
  begin
     id 17 
     name lclavicle
     direction 0.968229 0.236071 -0.0824755  
     length 3.60593  
     axis 0 0 0   XYZ
    dof ry rz
    limits (-20.0 10.0)
           (0.0 20.0)
  end
  begin
     id 18 
     name lhumerus
     direction 1 -4.48968e-011 7.8138e-029   
     length 5.06035   
     axis 180 -30 -90   XYZ
    dof rx ry rz
    limits (-60.0 90.0)
           (-90.0 90.0)
           (-90.0 90.0)
  end
  begin
     id 19
     name lradius
     direction 1 -4.48967e-011 9.02887e-028   
     length 3.1478   
     axis 180 -30 -90   XYZ
    dof rx
    limits (-10.0 170.0)
  end
  begin
     id 20
     name lwrist
     direction 1 -4.48961e-011 7.20928e-028   
     length 1.5739   
     axis -5.52449e-016 90 90   XYZ
    dof ry
    limits (-180.0 0.0)
 end
  begin
     id 21 
     name lhand
     direction 1 -4.48972e-011 1.44186e-027   
     length 0.606747   
     axis -9.20027e-016 90 90   XYZ
    dof rx rz
    limits (-90.0 90.0)
           (-45.0 45.0)
  end
  begin
     id 22 
     name lfingers
     direction 1 -4.48943e-011 2.88371e-027   
     length 0.489175   
     axis -1.84005e-015 90 90   XYZ
    dof rx
    limits (0.0 90.0)
  end
  begin
     id 23
     name lthumb
     direction 0.707107 -6.34917e-011 0.707107   
     length 0.70236   
     axis -90 45 2.85299e-015   XYZ
    dof rx rz
    limits (-45.0 45.0)
           (-45.0 45.0)
  end
  begin
     id 24 
     name rclavicle
     direction -0.978165 0.207816 0.0022268   
     length 3.35425  
     axis 0 0 0   XYZ 
    dof ry rz
    limits (-10.0 20.0)
           (-20.0 0.0)
  end
  begin
     id 25 
     name rhumerus
     direction -1 -4.48964e-011 -4.02159e-027  
     length 5.12273   
     axis 180 30 90   XYZ
    dof rx ry rz
    limits (-90.0 60.0)
           (-90.0 90.0)
           (-90.0 90.0)
  end
  begin
     id 26 
     name rradius
     direction -1 -4.48966e-011 1.62746e-027   
     length 3.422   
     axis 180 30 90   XYZ
    dof rx
    limits (-10.0 170.0)
  end
  begin
     id 27 
     name rwrist
     direction -1 -4.4896e-011 7.20928e-028   
     length 1.711   
     axis -5.52449e-016 -90 -90   XYZ
    dof ry
    limits (-180.0 0.0)
  end
  begin
     id 28
     name rhand
     direction -1 -4.48979e-011 1.44186e-027   
     length 0.704599   
     axis -9.20027e-016 -90 -90   XYZ
    dof rx rz
    limits (-90.0 90.0)
           (-45.0 45.0)
  end
  begin
     id 29
     name rfingers
     direction -1 -4.48962e-011 2.88371e-027   
     length 0.568066   
     axis -1.84005e-015 -90 -90   XYZ
    dof rx
    limits (0.0 90.0)
  end
  begin
     id 30
     name rthumb
     direction -0.707107 -6.34949e-011 0.707107   
     length 0.815633   
     axis -90 -45 -2.85299e-015   XYZ
    dof rx rz
    limits (-45.0 45.0)
           (-45.0 45.0)
  end
:hierarchy
  begin
    root lhipjoint rhipjoint lowerback
    lhipjoint lfemur
    lfemur ltibia
    ltibia lfoot
    lfoot ltoes
    rhipjoint rfemur
    rfemur rtibia
    rtibia rfoot
    rfoot rtoes
    lowerback upperback
    upperback thorax
    thorax lowerneck lclavicle rclavicle
    lowerneck upperneck
    upperneck head
    lclavicle lhumerus
    lhumerus lradius
    lradius lwrist
    lwrist lhand lthumb
    lhand lfingers
    rclavicle rhumerus
    rhumerus rradius
    rradius rwrist
    rwrist rhand rthumb
    rhand rfingers
  end

#!OML:ASF E:\id_vita\Project 1\Capture day 1\Session 1\Male1.ASF
:FULLY-SPECIFIED
:DEGREES
239
root 17.4581 15.9348 -0.413648 727.758 83.9297 726.702
lowerback -5.40804 0.122952 -2.79346
upperback 0.722612 0.36925 -0.374752
thorax 3.76591 0.129968 1.21275
lowerneck -9.76242 1.93099 3.71266
upperneck 5.68661 2.14257 -0.597985
head 3.64856 1.12274 -0.724551
rclavicle 8.48717e-015 -1.2921e-014
rhumerus -16.1733 1.6691 -91.8796
rradius 45.5233
rwrist -5.09701
rhand -21.0666 38.2962
rfingers 7.12502
rthumb 5.31004 8.38269
lclavicle 8.48717e-015 -1.2921e-014
lhumerus -133.534 23.741 -70.9913
lradius 11.1994
lwrist -106.005
lhand -12.9578 46.7777
lfingers 7.12502
lthumb 13.1339 76.344
rfemur 10.2373 3.10257 18.5939
rtibia 44.5206
rfoot 17.7953 9.75191
rtoes 16.1444
lfemur -27.8716 1.94502 -21.7651
ltibia 35.5707
lfoot -9.51126 1.30191
ltoes 42.9656
240
root 17.6613 15.966 -0.437063 729.772 83.6113 728.872
lowerback -5.1527 0.116172 -2.91318
upperback 0.702549 0.363518 -0.488401
thorax 3.60161 0.128607 1.16074
lowerneck -10.2863 2.02227 3.12725
upperneck 6.17546 2.26544 0.0803798
head 3.90626 1.2057 -0.380823
rclavicle -4.49207e-016 1.78906e-015
rhumerus -16.6981 1.66319 -92.0093
rradius 44.5733
rwrist -4.1984
rhand -20.8307 38.066
rfingers 7.12502
rthumb 5.53779 8.15833
lclavicle -4.49207e-016 1.78906e-015
lhumerus -133.922 24.9326 -70.3197
lradius 11.0584
lwrist -105.134
lhand -12.8204 46.961
lfingers 7.12502
lthumb 13.2663 76.5188
rfemur 8.56427 2.9882 18.0803
rtibia 47.4641
rfoot 20.8502 9.22463
rtoes 16.9063
lfemur -26.7562 2.33288 -22.2347
ltibia 35.4227
lfoot -10.2142 1.13577
ltoes 42.8259
241
root 17.8641 15.9916 -0.458822 733.04 83.3411 732.354
lowerback -4.81842 0.0704687 -3.25073
upperback 0.699857 0.315568 -0.599586
thorax 3.41185 0.102489 1.22997
lowerneck -11.1058 2.13525 2.60433
upperneck 6.98476 2.40194 0.698448
head 4.34522 1.29884 -0.0568681
rclavicle -1.21886e-014 -8.94531e-015
rhumerus -17.1632 1.74604 -92.0691
rradius 43.4834
rwrist -3.48868
rhand -20.6512 37.6665
rfingers 7.12502
rthumb 5.71115 7.76351
lclavicle -1.21886e-014 -8.94531e-015
lhumerus -134.794 25.5064 -70.4606
lradius 11.0117
lwrist -105.219
lhand -12.9283 46.8587
lfingers 7.12502
lthumb 13.1623 76.4233
rfemur 7.06892 2.84002 17.4255
rtibia 50.2501
rfoot 22.3129 8.15236
rtoes 15.0179
lfemur -25.5239 2.65843 -22.88
ltibia 35.134
lfoot -10.5508 1.00171
ltoes 42.0185
242
root 18.0614 16.0111 -0.476017 737.805 83.2009 737.31
lowerback -4.57341 -0.107099 -3.9323
upperback 0.733848 0.112862 -0.669123
thorax 3.31845 -0.00877399 1.52434
lowerneck -10.8249 2.25047 2.95146
upperneck 6.74147 2.56762 0.12851
head 4.21844 1.35757 -0.30417
rclavicle 1.50993e-014 1.19271e-015
rhumerus -17.6473 2.13678 -92.0961
rradius 42.4068
rwrist -3.07883
rhand -20.3551 37.1273
rfingers 7.12502
rthumb 5.99696 7.23219
lclavicle 1.50993e-014 1.19271e-015
lhumerus -135.244 26.8256 -69.4924
lradius 10.8784
lwrist -104.028
lhand -12.668 46.4581
lfingers 7.12502
lthumb 13.4132 76.0063
rfemur 5.61072 2.52287 16.6669
rtibia 52.8632
rfoot 23.3363 7.24971
rtoes 14.9713
lfemur -24.3071 2.80136 -23.6732
ltibia 34.7532
lfoot -10.8063 0.891804
ltoes 41.1116
243
root 18.2545 16.0359 -0.492062 741.99 83.0402 741.601
lowerback -4.42255 -0.280472 -4.56951
upperback 0.768359 -0.0842072 -0.750248
thorax 3.2826 -0.116906 1.78314
lowerneck -9.81709 2.17344 3.69807
upperneck 5.73827 2.49114 -0.92256
head 3.69222 1.27994 -0.807426
rclavicle -4.94244e-016 -1.98785e-016
rhumerus -18.1702 2.37307 -92.1667
rradius 41.3056
rwrist -2.75834
rhand -20.061 36.948
rfingers 7.12502
rthumb 6.28094 7.06116
lclavicle -4.94244e-016 -1.98785e-016
lhumerus -135.604 28.505 -68.3511
lradius 10.6578
lwrist -102.575
lhand -12.4284 46.0576
lfingers 7.12502
lthumb 13.6441 75.5904
rfemur 4.01232 2.17201 15.9909
rtibia 55.2838
rfoot 23.1131 6.64839
rtoes 8.36183
lfemur -23.1879 2.85833 -24.3725
ltibia 34.3376
lfoot -11.5631 0.837646
ltoes 41.6051
244
root 18.449 16.0613 -0.508842 744.757 82.8439 744.385
lowerback -4.31503 -0.348217 -4.90212
upperback 0.708216 -0.157583 -0.890741
thorax 3.16594 -0.153705 1.81948
lowerneck -8.35404 1.71973 4.41821
upperneck 4.28403 1.93116 -1.94181
head 2.92 0.967776 -1.31079
rclavicle -7.5014e-015 -3.77691e-015
rhumerus -18.9434 2.04271 -92.2304
rradius 40.2007
rwrist -2.10205
rhand -19.9273 37.2919
rfingers 7.12502
rthumb 6.41001 7.40894
lclavicle -7.5014e-015 -3.77691e-015
lhumerus -135.951 30.1277 -67.6055
lradius 10.3965
lwrist -101.634
lhand -12.6897 46.1251
lfingers 7.12502
lthumb 13.3923 75.6747
rfemur 2.39228 1.95869 15.4636
rtibia 57.4872
rfoot 22.2439 5.40946
rtoes 7.30824
lfemur -22.1782 2.98443 -24.9188
ltibia 33.9124
lfoot -12.3661 0.707818
ltoes 41.6412
245
root 18.6408 16.0794 -0.523185 747.252 82.6658 746.818
lowerback -4.29401 -0.393322 -5.21595
upperback 0.612202 -0.199436 -1.00798
thorax 3.05907 -0.173904 1.87151
lowerneck -9.48023 2.11225 4.18187
upperneck 5.49301 2.40466 -1.48739
head 3.55866 1.22192 -1.08999
rclavicle 2.20061e-015 3.10104e-014
rhumerus -19.7109 1.51187 -92.1803
rradius 38.9587
rwrist -1.26715
rhand -19.896 37.5797
rfingers 7.12502
rthumb 6.44025 7.69759
lclavicle 2.20061e-015 3.10104e-014
lhumerus -135.62 32.6719 -65.7042
lradius 10.1006
lwrist -99.4632
lhand -12.9899 46.432
lfingers 7.12502
lthumb 13.1029 76.0003
rfemur 0.805079 1.81236 15.0041
rtibia 59.4564
rfoot 20.1625 4.06405
rtoes 10.9524
lfemur -21.2671 3.13876 -25.4312
ltibia 33.469
lfoot -12.9018 0.547662
ltoes 40.9409
246
root 18.8273 16.0943 -0.540507 750.236 82.482 749.792
lowerback -4.27014 -0.448611 -5.59255
upperback 0.626985 -0.247512 -1.12656
thorax 3.06665 -0.202456 1.95628
lowerneck -5.82077 0.777331 5.33264
upperneck 0.964315 0.777285 -4.05682
head 1.35335 0.342648 -2.19393
rclavicle -1.19005e-014 -1.98785e-014
rhumerus -20.1936 0.948468 -92.0868
rradius 37.633
rwrist -0.631953
rhand -19.9681 37.4913
rfingers 7.12502
rthumb 6.37064 7.60706
lclavicle -1.19005e-014 -1.98785e-014
lhumerus -133.316 38.0731 -60.3143
lradius 9.79052
lwrist -93.4165
lhand -12.7662 46.8595
lfingers 7.12502
lthumb 13.3186 76.4139
rfemur -0.70244 1.5289 14.4686
rtibia 61.1824
rfoot 17.0181 3.91836
rtoes 11.6102
lfemur -20.2978 3.17882 -26.0332
ltibia 33.0096
lfoot -13.4335 0.502062
ltoes 41.1492
247
root 19.0145 16.1144 -0.559581 753.08 82.438 752.709
lowerback -4.18117 -0.533916 -5.80372
upperback 0.689819 -0.346167 -1.27729
thorax 3.09026 -0.254275 1.9118
lowerneck -10.3953 2.02858 4.18612
upperneck 6.21896 2.24171 -1.356
head 3.98917 1.15107 -1.05416
rclavicle 1.16992e-014 8.94531e-015
rhumerus -20.6085 -0.130307 -92.0073
rradius 36.1845
rwrist 0.359242
rhand -20.3017 37.3904
rfingers 7.12502
rthumb 6.04859 7.4967
lclavicle 1.16992e-014 8.94531e-015
lhumerus -130.145 43.4137 -54.3625
lradius 9.47874
lwrist -87.5177
lhand -12.1777 47.1991
lfingers 7.12502
lthumb 13.8858 76.7155
rfemur -2.23089 1.11218 14.0438
rtibia 62.6507
rfoot 13.7742 3.72435
rtoes 12.6011
lfemur -19.233 3.05476 -26.5547
ltibia 32.5887
lfoot -13.9939 0.475961
ltoes 41.3435
248
root 19.2046 16.1382 -0.575138 755.118 82.6171 754.778
lowerback -4.19159 -0.678555 -5.85198
upperback 0.75197 -0.529365 -1.34391
thorax 3.1747 -0.348286 1.85654
lowerneck -10.5161 2.05297 4.53968
upperneck 6.34443 2.2373 -1.56887
head 4.06973 1.14865 -1.19039
rclavicle 2.41958e-015 -1.49089e-014
rhumerus -21.097 -1.43284 -91.8285
rradius 34.5698
rwrist 1.4815
rhand -20.8045 37.2016
rfingers 7.12502
rthumb 5.56306 7.29458
lclavicle 2.41958e-015 -1.49089e-014
lhumerus -125.691 48.3874 -47.3832
lradius 9.19076
lwrist -81.701
lhand -11.8198 47.5475
lfingers 7.12502
lthumb 14.2307 77.0399
rfemur -3.80827 0.6639 13.9239
rtibia 63.8821
rfoot 10.7409 3.09878
rtoes 15.6285
lfemur -18.2261 2.88889 -26.8148
ltibia 32.2139
lfoot -14.5183 0.373876
ltoes 40.9701
249
root 19.3916 16.1557 -0.590547 754.696 82.991 754.358
lowerback -4.22146 -0.817578 -5.56447
upperback 0.800464 -0.730777 -1.25846
thorax 3.25364 -0.447746 1.76913
lowerneck -10.4903 2.01923 4.3469
upperneck 6.1986 2.20902 -1.43635
head 4.00468 1.13477 -1.11228
rclavicle 1.96277e-014 7.15625e-015
rhumerus -21.7336 -2.27189 -91.5468
rradius 33.1009
rwrist 1.84784
rhand -20.9499 36.8637
rfingers 7.12502
rthumb 5.42271 6.9531
lclavicle 1.96277e-014 7.15625e-015
lhumerus -119.826 52.9571 -39.1417
lradius 8.96864
lwrist -75.804
lhand -12.21 47.8209
lfingers 7.12502
lthumb 13.8546 77.3395
rfemur -5.23422 0.314474 14.2991
rtibia 64.8911
rfoot 7.69281 2.66666
rtoes 15.1638
lfemur -17.2885 2.79572 -26.6542
ltibia 31.8933
lfoot -15.0061 0.23485
ltoes 40.5978
250
root 19.5741 16.1664 -0.608053 754.796 83.2826 754.336
lowerback -4.30992 -0.917923 -5.29553
upperback 0.793962 -0.876027 -1.21641
thorax 3.30299 -0.516939 1.65066
lowerneck -10.6465 2.00039 4.14687
upperneck 6.41432 2.18182 -1.16468
head 4.10317 1.13115 -0.985647
rclavicle -2.34038e-015 -1.59028e-015
rhumerus -22.281 -3.30846 -91.1759
rradius 31.4694
rwrist 2.21681
rhand -21.018 36.727
rfingers 7.12502
rthumb 5.35701 6.81473
lclavicle -2.34038e-015 -1.59028e-015
lhumerus -112.042 57.1293 -29.1706
lradius 8.78825
lwrist -69.8912
lhand -12.6616 48.1235
lfingers 7.12502
lthumb 13.4194 77.6713
rfemur -6.83718 0.0644462 14.6048
rtibia 65.7017
rfoot 4.71987 2.0659
rtoes 11.5072
lfemur -16.5549 2.66251 -26.6034
ltibia 31.6835
lfoot -15.5811 0.0951783
ltoes 40.7019
251
root 19.7566 16.1711 -0.628517 757.817 83.4816 757.164
lowerback -4.36626 -1.03451 -5.31119
upperback 0.728182 -1.02721 -1.25441
thorax 3.27653 -0.589944 1.60885
lowerneck -10.7771 1.97605 3.93693
upperneck 6.58391 2.14684 -0.860308
head 4.17972 1.12502 -0.846507
rclavicle 1.66164e-014 -8.34896e-015
rhumerus -22.8277 -4.91594 -90.5912
rradius 29.5606
rwrist 3.08425
rhand -21.4851 36.8386
rfingers 7.12502
rthumb 4.90593 6.91541
lclavicle 1.66164e-014 -8.34896e-015
lhumerus -101.822 60.322 -16.8322
lradius 8.80646
lwrist -64.0262
lhand -12.3025 48.9397
lfingers 7.12502
lthumb 13.7655 78.4643
rfemur -8.56037 -0.29843 14.5075
rtibia 66.2903
rfoot 1.91818 1.17535
rtoes 10.1294
lfemur -15.9537 2.36276 -26.9099
ltibia 31.5848
lfoot -16.2721 -0.0608335
ltoes 41.3889
252
root 19.9393 16.17 -0.647624 760.259 83.8636 759.497
lowerback -4.30633 -1.20269 -5.21385
upperback 0.630526 -1.2669 -1.207
thorax 3.1564 -0.703945 1.58806
lowerneck -10.6066 2.03541 3.75494
upperneck 6.56289 2.23804 -0.609851
head 4.13218 1.1779 -0.723447
rclavicle -8.40875e-015 -2.21645e-014
rhumerus -23.6105 -6.71217 -89.847
rradius 27.8045
rwrist 4.01736
rhand -21.8124 36.8664
rfingers 7.12502
rthumb 4.5899 6.93611
lclavicle -8.40875e-015 -2.21645e-014
lhumerus -89.7061 61.8776 -2.64148
lradius 9.12066
lwrist -58.2131
lhand -11.806 49.0616
lfingers 7.12502
lthumb 14.2439 78.5531
rfemur -10.0833 -0.731131 14.6509
rtibia 66.6423
rfoot -0.221408 0.437406
rtoes 10.1619
lfemur -15.2854 2.01557 -26.9958
ltibia 31.5236
lfoot -16.8692 -0.216453
ltoes 41.6094
